<?xml version="1.0" encoding="UTF-8" standalone="no"?>
<svg
   xmlns:dc="http://purl.org/dc/elements/1.1/"
   xmlns:cc="http://creativecommons.org/ns#"
   xmlns:rdf="http://www.w3.org/1999/02/22-rdf-syntax-ns#"
   xmlns:svg="http://www.w3.org/2000/svg"
   xmlns="http://www.w3.org/2000/svg"
   xmlns:sodipodi="http://sodipodi.sourceforge.net/DTD/sodipodi-0.dtd"
   xmlns:inkscape="http://www.inkscape.org/namespaces/inkscape"
   width="261.92682"
   height="76.361626"
   viewBox="0 0 20.195186 5.8876646"
   version="1.1"
   id="svg84"
   sodipodi:docname="ieee.svg"
   inkscape:version="1.0 (6e3e5246a0, 2020-05-07)">
  <metadata
     id="metadata90">
    <rdf:RDF>
      <cc:Work
         rdf:about="">
        <dc:format>image/svg+xml</dc:format>
        <dc:type
           rdf:resource="http://purl.org/dc/dcmitype/StillImage" />
        <dc:title></dc:title>
      </cc:Work>
    </rdf:RDF>
  </metadata>
  <defs
     id="defs88" />
  <sodipodi:namedview
     inkscape:document-rotation="0"
     pagecolor="#ffffff"
     bordercolor="#666666"
     borderopacity="1"
     objecttolerance="10"
     gridtolerance="10"
     guidetolerance="10"
     inkscape:pageopacity="0"
     inkscape:pageshadow="2"
     inkscape:window-width="1967"
     inkscape:window-height="1122"
     id="namedview86"
     showgrid="false"
     fit-margin-top="0"
     fit-margin-left="0"
     fit-margin-right="0"
     fit-margin-bottom="0"
     inkscape:zoom="2.1631811"
     inkscape:cx="344.4319"
     inkscape:cy="75.18322"
     inkscape:window-x="81"
     inkscape:window-y="30"
     inkscape:window-maximized="1"
     inkscape:current-layer="g82" />
  <g
     fill-rule="evenodd"
     clip-rule="evenodd"
     id="g82"
     transform="translate(-86.280755,-93.435372)">
    <path
       fill="#366db4"
       d="m 93.015391,94.214207 h 1.235433 v 4.46008 h -1.235433 z m 1.88386,4.46008 v -4.46008 h 3.397899 v 0.864749 h -2.162358 v 0.920449 h 1.989106 v 0.864857 h -1.989106 v 0.945168 h 2.162358 v 0.864857 z m 4.089614,0 v -4.46008 h 3.397575 v 0.864749 h -2.16225 v 0.920449 h 1.98921 v 0.864857 h -1.98921 v 0.945168 h 2.16225 v 0.864857 z m 4.089505,0 v -4.46008 h 3.39757 v 0.864749 h -2.16225 v 0.920449 h 1.98911 v 0.864857 h -1.98911 v 0.945168 h 2.16225 v 0.864857 z M 89.630445,93.814054 c 0.183399,0.232514 0.376297,0.476038 0.5747,0.69657 l 0.490072,0.511877 a 9.9254544,9.9254544 0 0 0 1.419047,1.17304 l 0.0164,0.0026 a 0.25863673,0.25863673 0 0 1 0.114961,0.190416 c -0.0026,0.162781 -0.190092,0.195488 -0.288645,0.28314 -0.98133,0.711575 -1.859897,1.592839 -2.552473,2.574284 l -0.05581,0.05615 c -0.05624,0.03431 -0.128778,0.02061 -0.187717,0 -0.07524,-0.02472 -0.08333,-0.106649 -0.131369,-0.157491 -0.153174,-0.23802 -0.348986,-0.461034 -0.51587,-0.682647 -0.09855,-0.100172 -0.1807,-0.205311 -0.281953,-0.312068 -0.569411,-0.624464 -1.209957,-1.171746 -1.87911,-1.632888 -0.04793,-0.04804 -0.08765,-0.111076 -0.06574,-0.187608 0.02061,-0.08485 0.119064,-0.135472 0.184802,-0.187394 0.836144,-0.573513 1.602662,-1.322004 2.249794,-2.124146 l 0.403932,-0.525584 c 0.05322,-0.0408 0.124568,-0.07502 0.190091,-0.04631 0.03012,0.0081 0.06444,0.0354 0.09175,0.05171 z"
       id="path70"
       style="stroke-width:0.107945" />
    <path
       d="m 89.052831,94.264294 a 7.6068989,7.6068989 0 0 0 -0.548902,0.429837 c -0.01501,0.0095 -0.03282,0.0299 -0.04232,0.03962 -0.420123,0.375002 -0.836144,0.785517 -1.175632,1.217946 -0.09575,0.12446 -0.197,0.246331 -0.234025,0.394107 -0.0014,0.07923 0.01101,0.153283 0.05354,0.213408 0.287242,0.428435 0.667965,0.837871 1.046852,1.189557 0.327182,0.291343 0.641951,0.611833 1.015441,0.807321 0.123165,0.05754 0.261443,-0.0095 0.364099,-0.08204 0.507774,-0.357406 0.96082,-0.804732 1.390334,-1.267276 0.198403,-0.243525 0.425736,-0.46654 0.537891,-0.745686 0.03012,-0.111076 -0.01781,-0.20542 -0.07243,-0.289077 -0.335278,-0.478953 -0.743203,-0.931784 -1.18254,-1.339817 l -0.02871,-0.0164 C 90.017645,94.662503 89.837052,94.512136 89.66326,94.379363 89.497565,94.238279 89.250046,94.111011 89.052831,94.264294 Z"
       fill="#ffffff"
       id="path72"
       style="stroke-width:0.107945" />
    <path
       d="m 89.125478,94.384652 c -0.625543,0.432429 -1.227661,1.018139 -1.71212,1.616156 -0.09866,0.145186 -0.27105,0.283464 -0.193006,0.476578 0.05613,0.142272 0.182104,0.24482 0.262847,0.370684 0.474743,0.570706 1.03595,1.103092 1.621553,1.531526 0.257341,0.164185 0.44074,-0.101252 0.640547,-0.22323 0.40922,-0.322756 0.788324,-0.715569 1.146918,-1.097371 v -0.0095 c 0.143567,-0.1739 0.295553,-0.344885 0.407708,-0.532386 0.04944,-0.09197 0.02472,-0.217834 -0.03023,-0.298576 -0.433831,-0.628241 -1.003027,-1.183728 -1.606548,-1.669589 -0.156089,-0.109564 -0.336681,-0.301059 -0.537675,-0.164293 z"
       fill="#366db4"
       id="path74"
       style="stroke-width:0.107945" />
    <path
       d="m 89.252636,94.778868 -0.05462,0.175087 -0.273749,0.78433 c 0.06844,0.0067 0.153282,0 0.220316,0.0067 v 0.0069 l -0.03972,0.88677 0.0069,0.0097 c 0.08765,0.008 0.196892,0.0122 0.285947,-0.0029 v -0.01349 l -0.03562,-0.860864 0.0055,-0.02871 0.240825,-0.0041 a 38.599588,38.599588 0 0 1 -0.348987,-0.959418 z"
       fill="#ffffff"
       id="path76"
       style="stroke-width:0.107945" />
    <path
       d="m 88.320745,96.007716 c -0.153497,0.07664 -0.379211,0.193222 -0.354491,0.403608 0.03282,0.11507 0.157384,0.188904 0.255938,0.236939 0.544584,0.239531 1.267385,0.247735 1.841977,0.06833 0.142379,-0.05462 0.332687,-0.133851 0.358594,-0.307859 -0.0014,-0.143891 -0.153282,-0.234025 -0.262847,-0.288754 v -0.0068 c 0.03821,-0.01501 0.08226,-0.02882 0.121871,-0.03303 v -0.0041 c -0.193007,-0.03422 -0.379212,-0.08484 -0.565202,-0.134069 0.03562,0.08204 0.06153,0.168287 0.09175,0.253348 a 1.0235365,1.0235365 0 0 1 0.173683,-0.03994 c 0.09866,0.03843 0.239531,0.09316 0.25324,0.216215 0.01101,0.115069 -0.114962,0.170985 -0.194301,0.217617 -0.421526,0.153283 -0.896485,0.168503 -1.335822,0.05203 -0.121655,-0.03821 -0.296957,-0.08765 -0.311962,-0.242013 0.08625,-0.203909 0.309371,-0.246547 0.49536,-0.295662 -0.09575,-0.06175 -0.192898,-0.116473 -0.285947,-0.18491 -0.09985,0.0057 -0.191494,0.04944 -0.281845,0.08905 z m 0.77861,0.88418 c -0.0163,0.314768 -0.0204,0.606328 -0.04372,0.922608 0.124569,0.01101 0.265438,0.02191 0.39821,0.0024 l -0.03972,-0.879969 -0.0069,-0.04242 c -0.101145,0.0042 -0.196893,0.0082 -0.30786,-0.0027 z"
       fill="#ffffff"
       id="path78"
       style="stroke-width:0.107945" />
    <path
       d="m 90.244114,98.862112 v -0.05375 h 0.03346 c 0.01813,0 0.04275,0.0017 0.04275,0.02451 0,0.02472 -0.01263,0.02926 -0.0339,0.02926 z m 0,0.03767 h 0.02256 l 0.05127,0.09359 h 0.05656 l -0.057,-0.09737 c 0.02969,-0.0025 0.05365,-0.01727 0.05365,-0.05819 0,-0.05106 -0.0339,-0.06725 -0.09143,-0.06725 h -0.08322 v 0.2228 h 0.0475 v -0.09359 z m 0.242121,-0.0177 c 0,-0.130937 -0.09812,-0.207039 -0.207687,-0.207039 -0.109996,0 -0.208119,0.0761 -0.208119,0.207039 0,0.130939 0.09812,0.207251 0.208119,0.207251 0.109564,0 0.207687,-0.07631 0.207687,-0.207251 z m -0.05969,0 c 0,0.09532 -0.068,0.159646 -0.147992,0.159646 v -6.49e-4 c -0.08204,6.49e-4 -0.148317,-0.06369 -0.148317,-0.158997 0,-0.09532 0.06628,-0.158788 0.148317,-0.158788 0.07999,1.08e-4 0.147992,0.06358 0.147992,0.158788 z"
       fill="#366db4"
       id="path80"
       style="stroke-width:0.107945" />
  </g>
</svg>
